<svg width="35" height="35" viewBox="0 0 35 35" fill="none" xmlns="http://www.w3.org/2000/svg">
<path d="M24.5731 35H10.4262C7.66182 34.9969 5.01158 33.8973 3.05695 31.9425C1.10231 29.9878 0.00292453 27.3374 0 24.5731L0 10.4262C0.00311947 7.66195 1.10259 5.01182 3.05721 3.05721C5.01182 1.10259 7.66195 0.00311947 10.4262 0L24.5731 0C27.3374 0.00292453 29.9878 1.10231 31.9425 3.05695C33.8973 5.01158 34.9969 7.66182 35 10.4262V24.5731C34.9971 27.3376 33.8976 29.988 31.9428 31.9428C29.988 33.8976 27.3376 34.9971 24.5731 35ZM10.4262 3.52033C8.5953 3.52248 6.84001 4.25074 5.54538 5.54538C4.25074 6.84001 3.52247 8.5953 3.52033 10.4262V24.5731C3.52248 26.4039 4.25077 28.1591 5.54542 29.4536C6.84008 30.7481 8.59537 31.4762 10.4262 31.4782H24.5731C26.4038 31.4762 28.159 30.7481 29.4536 29.4536C30.7481 28.159 31.4762 26.4038 31.4782 24.5731V10.4262C31.4762 8.59537 30.7481 6.84008 29.4536 5.54542C28.1591 4.25077 26.4039 3.52248 24.5731 3.52033H10.4262ZM17.4978 26.5509C15.7076 26.5503 13.9579 26.0189 12.4697 25.024C10.9815 24.029 9.82181 22.615 9.13719 20.961C8.45256 19.3069 8.27377 17.487 8.62343 15.7313C8.97308 13.9756 9.83547 12.3631 11.1016 11.0975C12.3676 9.83191 13.9806 8.97017 15.7364 8.62124C17.4922 8.2723 19.3121 8.45183 20.9658 9.13712C22.6196 9.82242 24.0331 10.9827 25.0275 12.4713C26.0219 13.9598 26.5525 15.7098 26.5524 17.5C26.55 19.9001 25.5955 22.2011 23.8984 23.8982C22.2012 25.5952 19.9001 26.5495 17.5 26.5516L17.4978 26.5509ZM17.4978 11.9657C16.4038 11.9657 15.3344 12.2901 14.4248 12.8979C13.5151 13.5057 12.8062 14.3696 12.3875 15.3803C11.9689 16.391 11.8593 17.5032 12.0728 18.5762C12.2862 19.6491 12.813 20.6347 13.5866 21.4083C14.3601 22.1819 15.3457 22.7087 16.4187 22.9221C17.4917 23.1355 18.6038 23.026 19.6145 22.6073C20.6252 22.1887 21.4891 21.4797 22.0969 20.5701C22.7047 19.6605 23.0291 18.591 23.0291 17.4971C23.0268 16.0314 22.4435 14.6265 21.407 13.5902C20.3706 12.5539 18.9656 11.9708 17.5 11.9687L17.4978 11.9657ZM26.5671 10.6818C26.1381 10.6817 25.7187 10.5543 25.362 10.3158C25.0053 10.0773 24.7274 9.73839 24.5633 9.34194C24.3993 8.94548 24.3565 8.50928 24.4403 8.08849C24.5242 7.66771 24.7309 7.28124 25.0344 6.97795C25.3379 6.67466 25.7245 6.46818 26.1454 6.38462C26.5662 6.30106 27.0024 6.34416 27.3987 6.50849C27.7951 6.67282 28.1338 6.95099 28.372 7.30782C28.6103 7.66465 28.7374 8.08412 28.7372 8.51318C28.7372 9.08847 28.5089 9.64026 28.1025 10.0474C27.696 10.4545 27.1446 10.6838 26.5693 10.6847L26.5671 10.6818Z" fill="#804988"/>
</svg>
