<svg width="30" height="30" viewBox="0 0 30 30" fill="none" xmlns="http://www.w3.org/2000/svg">
<path fill-rule="evenodd" clip-rule="evenodd" d="M21.787 10.0306C24.1016 11.4722 26.9374 12.3204 29.9999 12.3204V7.18566C29.4203 7.18586 28.8422 7.13315 28.2751 7.02839V11.0702C25.2128 11.0702 22.3775 10.222 20.0622 8.78042V19.2588C20.0622 24.5007 15.1851 28.7498 9.16902 28.7498C6.92439 28.7498 4.83796 28.1586 3.10474 27.1445C5.08288 28.9067 7.84145 30 10.8934 30C16.9099 30 21.7872 25.7509 21.7872 20.5088L21.787 10.0306ZM23.9147 4.85029C22.7318 3.72437 21.9551 2.26917 21.787 0.660398V0H20.1525C20.5639 2.04462 21.9672 3.79148 23.9147 4.85029ZM6.9098 23.1222C6.24896 22.3673 5.89174 21.4436 5.89334 20.4939C5.89334 18.0964 8.12422 16.1527 10.8764 16.1527C11.3893 16.1523 11.8991 16.2209 12.388 16.356V11.1066C11.8168 11.0384 11.2403 11.0095 10.6639 11.0201V15.106C10.1748 14.9709 9.66474 14.9023 9.15168 14.9027C6.39946 14.9027 4.16878 16.8464 4.16878 19.2441C4.16878 20.9393 5.2838 22.4073 6.9098 23.1222Z" fill="white"/>
<path fill-rule="evenodd" clip-rule="evenodd" d="M20.0623 8.78042C22.3776 10.222 25.2129 11.0702 28.2752 11.0702V7.02839C26.5659 6.71128 25.0526 5.93289 23.9147 4.85029C21.9673 3.79148 20.564 2.04462 20.1526 0H15.8594V20.5087C15.8497 22.8995 13.6226 24.8354 10.8763 24.8354C9.25791 24.8354 7.82014 24.1633 6.90964 23.1222C5.28364 22.4073 4.16863 20.9393 4.16863 19.2441C4.16863 16.8464 6.3993 14.9027 9.15152 14.9027C9.67879 14.9027 10.187 14.9742 10.6637 15.106V11.0201C4.75342 11.1265 0 15.3341 0 20.5088C0 23.092 1.18375 25.4338 3.10479 27.1447C4.83802 28.1587 6.92445 28.75 9.16908 28.75C15.1851 28.75 20.0623 24.5007 20.0623 19.259V8.78042Z" fill="white"/>
</svg>
