<svg width="40" height="40" viewBox="0 0 40 40" fill="none" xmlns="http://www.w3.org/2000/svg">
<path fill-rule="evenodd" clip-rule="evenodd" d="M6.52767 29.4409C4.49589 26.6736 3.30097 23.2655 3.30097 19.5883C3.30097 10.3178 10.9006 2.77864 20.2459 2.77864H20.2544C29.5998 2.77864 37.1994 10.3199 37.1994 19.5883C37.1994 28.8568 29.5998 36.398 20.2544 36.398C16.8074 36.398 13.6103 35.3811 10.9302 33.6202L4.41538 35.6857L6.52767 29.4409ZM10.5624 36.654C13.4305 38.264 16.7346 39.1767 20.2544 39.1767C31.148 39.1767 40.0011 30.3905 40.0011 19.5883C40.0011 8.7862 31.148 0 20.2544 0H20.2459C9.35254 0 0.499264 8.78387 0.499264 19.5883C0.499264 23.3445 1.57124 26.8658 3.43338 29.8523L0 40.0028L10.5624 36.654Z" fill="white"/>
<path d="M30.1186 26.5163C29.7097 27.6615 28.0868 28.6113 26.7923 28.8886C25.9067 29.0756 24.7499 29.2248 20.8558 27.6237C15.8749 25.5771 12.6673 20.5573 12.4173 20.2316C12.1779 19.9059 10.4045 17.5736 10.4045 15.1614C10.4045 12.7492 11.6397 11.5746 12.1376 11.0703C12.5465 10.6564 13.2223 10.4673 13.8707 10.4673C14.0804 10.4673 14.269 10.4778 14.4385 10.4862C14.9363 10.5072 15.1863 10.5366 15.5147 11.3162C15.9236 12.2932 16.9194 14.7054 17.038 14.9534C17.1588 15.2013 17.2796 15.5375 17.1101 15.8632C16.9512 16.1994 16.8113 16.3486 16.5613 16.6343C16.3113 16.9201 16.074 17.1386 15.824 17.4454C15.5952 17.7123 15.3368 17.998 15.6249 18.4918C15.913 18.9751 16.9088 20.5867 18.3749 21.8811C20.2669 23.5515 21.8008 24.0852 22.3495 24.3122C22.7584 24.4803 23.2457 24.4403 23.5444 24.1252C23.9236 23.7196 24.3919 23.0472 24.8686 22.3854C25.2075 21.9105 25.6355 21.8517 26.0847 22.0198C26.5423 22.1773 28.9639 23.3645 29.4618 23.6104C29.9597 23.8583 30.2881 23.976 30.4088 24.184C30.5275 24.392 30.5275 25.3691 30.1186 26.5163Z" fill="white"/>
</svg>
